<svg width="77" height="24" viewBox="0 0 77 24" fill="none" xmlns="http://www.w3.org/2000/svg">
<path fill-rule="evenodd" clip-rule="evenodd" d="M14.0161 2.43576H6.53599L5.63124 7.13846H4.63124L5.72357 1.46076H6.32433L6.32568 1.45377H15.1911L15.1898 1.46076H15.2037L14.1114 7.13846H13.1114L14.0161 2.43576Z" fill="#BB6E04"/>
<rect width="12.3346" height="14.8015" transform="matrix(1 0 -0.188924 0.981992 3.80225 7.62799)" fill="#BB6E04"/>
<rect width="12.3346" height="14.8015" transform="matrix(1 0 -0.188924 0.981992 2.93311 6.85718)" fill="#FE9B14"/>
<path d="M18.9892 14.6622H23.2012L22.9612 15.8982H18.7492L18.9892 14.6622ZM18.3772 18.2862H23.1652L22.9132 19.5462H16.6612L18.3412 11.1462H24.4252L24.1612 12.4062H19.5532L18.3772 18.2862ZM27.3656 19.6182C26.8376 19.6182 26.3576 19.5102 25.9256 19.2942C25.4936 19.0702 25.1536 18.7502 24.9056 18.3342C24.6576 17.9102 24.5336 17.4062 24.5336 16.8222C24.5336 16.2782 24.6216 15.7782 24.7976 15.3222C24.9816 14.8662 25.2376 14.4702 25.5656 14.1342C25.8936 13.7982 26.2736 13.5382 26.7056 13.3542C27.1456 13.1702 27.6256 13.0782 28.1456 13.0782C28.6896 13.0782 29.1536 13.1742 29.5376 13.3662C29.9296 13.5582 30.2256 13.8462 30.4256 14.2302C30.6336 14.6062 30.7336 15.0742 30.7256 15.6342C30.7176 16.4262 30.5776 17.1222 30.3056 17.7222C30.0336 18.3222 29.6456 18.7902 29.1416 19.1262C28.6456 19.4542 28.0536 19.6182 27.3656 19.6182ZM27.7016 18.3942C28.1416 18.3942 28.5296 18.2902 28.8656 18.0822C29.2096 17.8742 29.4776 17.5862 29.6696 17.2182C29.8696 16.8502 29.9696 16.4262 29.9696 15.9462C29.9696 15.4342 29.8176 15.0342 29.5136 14.7462C29.2176 14.4502 28.7896 14.3022 28.2296 14.3022C27.7976 14.3022 27.4096 14.4062 27.0656 14.6142C26.7216 14.8222 26.4496 15.1102 26.2496 15.4782C26.0576 15.8462 25.9616 16.2702 25.9616 16.7502C25.9616 17.2622 26.1136 17.6662 26.4176 17.9622C26.7216 18.2502 27.1496 18.3942 27.7016 18.3942ZM29.3336 19.5462L29.6336 18.0462L30.0296 16.3902L30.2216 14.7222L30.5456 13.1502H31.9616L30.6896 19.5462H29.3336ZM34.8485 19.6182C34.2965 19.6182 33.7765 19.5542 33.2885 19.4262C32.8005 19.2902 32.4245 19.1222 32.1605 18.9222L32.7725 17.8182C33.0285 18.0022 33.3525 18.1542 33.7445 18.2742C34.1445 18.3862 34.5605 18.4422 34.9925 18.4422C35.4965 18.4422 35.8725 18.3742 36.1205 18.2382C36.3685 18.0942 36.4925 17.8982 36.4925 17.6502C36.4925 17.4662 36.4085 17.3302 36.2405 17.2422C36.0725 17.1462 35.8565 17.0702 35.5925 17.0142C35.3285 16.9582 35.0445 16.8982 34.7405 16.8342C34.4445 16.7702 34.1645 16.6822 33.9005 16.5702C33.6445 16.4582 33.4325 16.2942 33.2645 16.0782C33.0965 15.8622 33.0125 15.5742 33.0125 15.2142C33.0125 14.7742 33.1365 14.3942 33.3845 14.0742C33.6325 13.7542 33.9845 13.5102 34.4405 13.3422C34.8965 13.1662 35.4205 13.0782 36.0125 13.0782C36.4445 13.0782 36.8645 13.1262 37.2725 13.2222C37.6885 13.3182 38.0325 13.4542 38.3045 13.6302L37.7765 14.7462C37.4965 14.5622 37.1885 14.4342 36.8525 14.3622C36.5245 14.2902 36.2005 14.2542 35.8805 14.2542C35.3845 14.2542 35.0125 14.3302 34.7645 14.4822C34.5245 14.6342 34.4045 14.8262 34.4045 15.0582C34.4045 15.2422 34.4885 15.3862 34.6565 15.4902C34.8245 15.5862 35.0405 15.6662 35.3045 15.7302C35.5685 15.7862 35.8485 15.8462 36.1445 15.9102C36.4485 15.9662 36.7285 16.0502 36.9845 16.1622C37.2485 16.2742 37.4645 16.4342 37.6325 16.6422C37.8005 16.8502 37.8845 17.1302 37.8845 17.4822C37.8845 17.9462 37.7565 18.3382 37.5005 18.6582C37.2445 18.9782 36.8885 19.2182 36.4325 19.3782C35.9765 19.5382 35.4485 19.6182 34.8485 19.6182ZM38.8319 21.9462C38.5199 21.9462 38.2119 21.8942 37.9079 21.7902C37.5959 21.6942 37.3519 21.5582 37.1759 21.3822L37.8839 20.3502C38.0199 20.4782 38.1759 20.5782 38.3519 20.6502C38.5279 20.7222 38.7239 20.7582 38.9399 20.7582C39.1959 20.7582 39.4239 20.6902 39.6239 20.5542C39.8239 20.4262 40.0279 20.1982 40.2359 19.8702L40.7999 18.9822L40.9439 18.8382L44.4959 13.1502H45.9119L41.4839 20.1342C41.1879 20.5902 40.9079 20.9502 40.6439 21.2142C40.3799 21.4862 40.1039 21.6742 39.8159 21.7782C39.5279 21.8902 39.1999 21.9462 38.8319 21.9462ZM40.5239 19.7742L38.9399 13.1502H40.3679L41.6519 18.7062L40.5239 19.7742ZM48.4122 19.6662C47.9722 19.6662 47.5442 19.6222 47.1282 19.5342C46.7202 19.4462 46.3482 19.3262 46.0122 19.1742C45.6762 19.0222 45.3962 18.8542 45.1722 18.6702L45.8082 17.4942C46.0402 17.6862 46.3002 17.8542 46.5882 17.9982C46.8842 18.1342 47.1962 18.2422 47.5242 18.3222C47.8602 18.3942 48.2002 18.4302 48.5442 18.4302C48.9602 18.4302 49.3242 18.3822 49.6362 18.2862C49.9482 18.1822 50.1882 18.0382 50.3562 17.8542C50.5322 17.6702 50.6202 17.4462 50.6202 17.1822C50.6202 16.9502 50.5402 16.7662 50.3802 16.6302C50.2282 16.4862 50.0242 16.3662 49.7682 16.2702C49.5202 16.1742 49.2442 16.0862 48.9402 16.0062C48.6362 15.9182 48.3322 15.8222 48.0282 15.7182C47.7322 15.6062 47.4562 15.4702 47.2002 15.3102C46.9522 15.1422 46.7482 14.9302 46.5882 14.6742C46.4362 14.4182 46.3602 14.0982 46.3602 13.7142C46.3602 13.1702 46.5122 12.6982 46.8162 12.2982C47.1282 11.8902 47.5562 11.5782 48.1002 11.3622C48.6442 11.1382 49.2722 11.0262 49.9842 11.0262C50.5202 11.0262 51.0282 11.0902 51.5082 11.2182C51.9962 11.3382 52.4162 11.5142 52.7682 11.7462L52.1922 12.9222C51.8802 12.7062 51.5282 12.5422 51.1362 12.4302C50.7442 12.3182 50.3362 12.2622 49.9122 12.2622C49.4802 12.2622 49.1082 12.3182 48.7962 12.4302C48.4922 12.5342 48.2562 12.6822 48.0882 12.8742C47.9202 13.0662 47.8322 13.2942 47.8242 13.5582C47.8242 13.7902 47.9002 13.9822 48.0522 14.1342C48.2042 14.2782 48.4042 14.3982 48.6522 14.4942C48.9082 14.5902 49.1842 14.6822 49.4802 14.7702C49.7842 14.8502 50.0882 14.9422 50.3922 15.0462C50.6962 15.1502 50.9762 15.2822 51.2322 15.4422C51.4882 15.6022 51.6922 15.8062 51.8442 16.0542C52.0042 16.2942 52.0842 16.5982 52.0842 16.9662C52.0842 17.5102 51.9282 17.9862 51.6162 18.3942C51.3122 18.8022 50.8842 19.1182 50.3322 19.3422C49.7802 19.5582 49.1402 19.6662 48.4122 19.6662ZM57.7717 13.0782C58.3237 13.0782 58.7917 13.1902 59.1757 13.4142C59.5597 13.6382 59.8277 13.9702 59.9797 14.4102C60.1397 14.8422 60.1557 15.3702 60.0277 15.9942L59.3197 19.5462H57.8917L58.5997 16.0182C58.7117 15.4822 58.6637 15.0662 58.4557 14.7702C58.2477 14.4742 57.8677 14.3262 57.3157 14.3262C56.7557 14.3262 56.2877 14.4822 55.9117 14.7942C55.5437 15.0982 55.2917 15.5702 55.1557 16.2102L54.4957 19.5462H53.0677L54.8437 10.6422H56.2717L55.4077 14.9742L55.1077 14.3862C55.4117 13.9382 55.7917 13.6102 56.2477 13.4022C56.7117 13.1862 57.2197 13.0782 57.7717 13.0782ZM64.4028 19.6182C63.7788 19.6182 63.2348 19.5022 62.7708 19.2702C62.3068 19.0382 61.9468 18.7142 61.6908 18.2982C61.4428 17.8742 61.3188 17.3822 61.3188 16.8222C61.3188 16.1022 61.4788 15.4622 61.7988 14.9022C62.1268 14.3342 62.5748 13.8902 63.1428 13.5702C63.7188 13.2422 64.3748 13.0782 65.1108 13.0782C65.7348 13.0782 66.2748 13.1942 66.7308 13.4262C67.1948 13.6502 67.5548 13.9742 67.8108 14.3982C68.0668 14.8142 68.1948 15.3062 68.1948 15.8742C68.1948 16.5862 68.0308 17.2262 67.7028 17.7942C67.3748 18.3622 66.9268 18.8102 66.3588 19.1382C65.7908 19.4582 65.1388 19.6182 64.4028 19.6182ZM64.4868 18.4062C64.9268 18.4062 65.3148 18.3022 65.6508 18.0942C65.9948 17.8782 66.2628 17.5862 66.4548 17.2182C66.6548 16.8502 66.7548 16.4262 66.7548 15.9462C66.7548 15.4342 66.6028 15.0302 66.2988 14.7342C66.0028 14.4382 65.5748 14.2902 65.0148 14.2902C64.5828 14.2902 64.1948 14.3982 63.8508 14.6142C63.5068 14.8222 63.2348 15.1102 63.0348 15.4782C62.8428 15.8462 62.7468 16.2702 62.7468 16.7502C62.7468 17.2622 62.8988 17.6662 63.2028 17.9622C63.5068 18.2582 63.9348 18.4062 64.4868 18.4062ZM72.7977 19.6182C72.2617 19.6182 71.7977 19.5222 71.4057 19.3302C71.0217 19.1382 70.7257 18.8542 70.5177 18.4782C70.3097 18.0942 70.2137 17.6222 70.2297 17.0622C70.2377 16.2622 70.3777 15.5622 70.6497 14.9622C70.9217 14.3622 71.3057 13.8982 71.8017 13.5702C72.2977 13.2422 72.8897 13.0782 73.5777 13.0782C74.1137 13.0782 74.5937 13.1902 75.0177 13.4142C75.4497 13.6302 75.7897 13.9462 76.0377 14.3622C76.2857 14.7782 76.4097 15.2822 76.4097 15.8742C76.4097 16.4182 76.3177 16.9182 76.1337 17.3742C75.9577 17.8302 75.7057 18.2262 75.3777 18.5622C75.0497 18.8982 74.6657 19.1582 74.2257 19.3422C73.7937 19.5262 73.3177 19.6182 72.7977 19.6182ZM68.5137 21.8742L70.2537 13.1502H71.6097L71.3097 14.6502L70.9257 16.3062L70.7217 17.9742L69.9417 21.8742H68.5137ZM72.7137 18.3942C73.1537 18.3942 73.5417 18.2902 73.8777 18.0822C74.2217 17.8742 74.4897 17.5862 74.6817 17.2182C74.8817 16.8502 74.9817 16.4262 74.9817 15.9462C74.9817 15.4342 74.8297 15.0342 74.5257 14.7462C74.2217 14.4502 73.7937 14.3022 73.2417 14.3022C72.8097 14.3022 72.4217 14.4062 72.0777 14.6142C71.7337 14.8222 71.4617 15.1102 71.2617 15.4782C71.0697 15.8462 70.9737 16.2702 70.9737 16.7502C70.9737 17.2622 71.1217 17.6662 71.4177 17.9622C71.7217 18.2502 72.1537 18.3942 72.7137 18.3942Z" fill="#1A1F16"/>
</svg>
