<svg width="77" height="22" viewBox="0 0 77 22" fill="none" xmlns="http://www.w3.org/2000/svg">
<path fill-rule="evenodd" clip-rule="evenodd" d="M14.0161 1.43573H6.53599L5.63124 6.13843H4.63124L5.72357 0.460728H6.32433L6.32568 0.453735H15.1911L15.1898 0.460728H15.2037L14.1114 6.13843H13.1114L14.0161 1.43573Z" fill="#105E46"/>
<rect width="12.3346" height="14.8015" transform="matrix(1 0 -0.188924 0.981992 3.80225 6.62799)" fill="#12805D"/>
<rect width="12.3346" height="14.8015" transform="matrix(1 0 -0.188924 0.981992 2.93311 5.85712)" fill="#02D693"/>
<path d="M18.9892 13.6622H23.2012L22.9612 14.8982H18.7492L18.9892 13.6622ZM18.3772 17.2862H23.1652L22.9132 18.5462H16.6612L18.3412 10.1462H24.4252L24.1612 11.4062H19.5532L18.3772 17.2862ZM27.3656 18.6182C26.8376 18.6182 26.3576 18.5102 25.9256 18.2942C25.4936 18.0702 25.1536 17.7502 24.9056 17.3342C24.6576 16.9102 24.5336 16.4062 24.5336 15.8222C24.5336 15.2782 24.6216 14.7782 24.7976 14.3222C24.9816 13.8662 25.2376 13.4702 25.5656 13.1342C25.8936 12.7982 26.2736 12.5382 26.7056 12.3542C27.1456 12.1702 27.6256 12.0782 28.1456 12.0782C28.6896 12.0782 29.1536 12.1742 29.5376 12.3662C29.9296 12.5582 30.2256 12.8462 30.4256 13.2302C30.6336 13.6062 30.7336 14.0742 30.7256 14.6342C30.7176 15.4262 30.5776 16.1222 30.3056 16.7222C30.0336 17.3222 29.6456 17.7902 29.1416 18.1262C28.6456 18.4542 28.0536 18.6182 27.3656 18.6182ZM27.7016 17.3942C28.1416 17.3942 28.5296 17.2902 28.8656 17.0822C29.2096 16.8742 29.4776 16.5862 29.6696 16.2182C29.8696 15.8502 29.9696 15.4262 29.9696 14.9462C29.9696 14.4342 29.8176 14.0342 29.5136 13.7462C29.2176 13.4502 28.7896 13.3022 28.2296 13.3022C27.7976 13.3022 27.4096 13.4062 27.0656 13.6142C26.7216 13.8222 26.4496 14.1102 26.2496 14.4782C26.0576 14.8462 25.9616 15.2702 25.9616 15.7502C25.9616 16.2622 26.1136 16.6662 26.4176 16.9622C26.7216 17.2502 27.1496 17.3942 27.7016 17.3942ZM29.3336 18.5462L29.6336 17.0462L30.0296 15.3902L30.2216 13.7222L30.5456 12.1502H31.9616L30.6896 18.5462H29.3336ZM34.8485 18.6182C34.2965 18.6182 33.7765 18.5542 33.2885 18.4262C32.8005 18.2902 32.4245 18.1222 32.1605 17.9222L32.7725 16.8182C33.0285 17.0022 33.3525 17.1542 33.7445 17.2742C34.1445 17.3862 34.5605 17.4422 34.9925 17.4422C35.4965 17.4422 35.8725 17.3742 36.1205 17.2382C36.3685 17.0942 36.4925 16.8982 36.4925 16.6502C36.4925 16.4662 36.4085 16.3302 36.2405 16.2422C36.0725 16.1462 35.8565 16.0702 35.5925 16.0142C35.3285 15.9582 35.0445 15.8982 34.7405 15.8342C34.4445 15.7702 34.1645 15.6822 33.9005 15.5702C33.6445 15.4582 33.4325 15.2942 33.2645 15.0782C33.0965 14.8622 33.0125 14.5742 33.0125 14.2142C33.0125 13.7742 33.1365 13.3942 33.3845 13.0742C33.6325 12.7542 33.9845 12.5102 34.4405 12.3422C34.8965 12.1662 35.4205 12.0782 36.0125 12.0782C36.4445 12.0782 36.8645 12.1262 37.2725 12.2222C37.6885 12.3182 38.0325 12.4542 38.3045 12.6302L37.7765 13.7462C37.4965 13.5622 37.1885 13.4342 36.8525 13.3622C36.5245 13.2902 36.2005 13.2542 35.8805 13.2542C35.3845 13.2542 35.0125 13.3302 34.7645 13.4822C34.5245 13.6342 34.4045 13.8262 34.4045 14.0582C34.4045 14.2422 34.4885 14.3862 34.6565 14.4902C34.8245 14.5862 35.0405 14.6662 35.3045 14.7302C35.5685 14.7862 35.8485 14.8462 36.1445 14.9102C36.4485 14.9662 36.7285 15.0502 36.9845 15.1622C37.2485 15.2742 37.4645 15.4342 37.6325 15.6422C37.8005 15.8502 37.8845 16.1302 37.8845 16.4822C37.8845 16.9462 37.7565 17.3382 37.5005 17.6582C37.2445 17.9782 36.8885 18.2182 36.4325 18.3782C35.9765 18.5382 35.4485 18.6182 34.8485 18.6182ZM38.8319 20.9462C38.5199 20.9462 38.2119 20.8942 37.9079 20.7902C37.5959 20.6942 37.3519 20.5582 37.1759 20.3822L37.8839 19.3502C38.0199 19.4782 38.1759 19.5782 38.3519 19.6502C38.5279 19.7222 38.7239 19.7582 38.9399 19.7582C39.1959 19.7582 39.4239 19.6902 39.6239 19.5542C39.8239 19.4262 40.0279 19.1982 40.2359 18.8702L40.7999 17.9822L40.9439 17.8382L44.4959 12.1502H45.9119L41.4839 19.1342C41.1879 19.5902 40.9079 19.9502 40.6439 20.2142C40.3799 20.4862 40.1039 20.6742 39.8159 20.7782C39.5279 20.8902 39.1999 20.9462 38.8319 20.9462ZM40.5239 18.7742L38.9399 12.1502H40.3679L41.6519 17.7062L40.5239 18.7742ZM48.4122 18.6662C47.9722 18.6662 47.5442 18.6222 47.1282 18.5342C46.7202 18.4462 46.3482 18.3262 46.0122 18.1742C45.6762 18.0222 45.3962 17.8542 45.1722 17.6702L45.8082 16.4942C46.0402 16.6862 46.3002 16.8542 46.5882 16.9982C46.8842 17.1342 47.1962 17.2422 47.5242 17.3222C47.8602 17.3942 48.2002 17.4302 48.5442 17.4302C48.9602 17.4302 49.3242 17.3822 49.6362 17.2862C49.9482 17.1822 50.1882 17.0382 50.3562 16.8542C50.5322 16.6702 50.6202 16.4462 50.6202 16.1822C50.6202 15.9502 50.5402 15.7662 50.3802 15.6302C50.2282 15.4862 50.0242 15.3662 49.7682 15.2702C49.5202 15.1742 49.2442 15.0862 48.9402 15.0062C48.6362 14.9182 48.3322 14.8222 48.0282 14.7182C47.7322 14.6062 47.4562 14.4702 47.2002 14.3102C46.9522 14.1422 46.7482 13.9302 46.5882 13.6742C46.4362 13.4182 46.3602 13.0982 46.3602 12.7142C46.3602 12.1702 46.5122 11.6982 46.8162 11.2982C47.1282 10.8902 47.5562 10.5782 48.1002 10.3622C48.6442 10.1382 49.2722 10.0262 49.9842 10.0262C50.5202 10.0262 51.0282 10.0902 51.5082 10.2182C51.9962 10.3382 52.4162 10.5142 52.7682 10.7462L52.1922 11.9222C51.8802 11.7062 51.5282 11.5422 51.1362 11.4302C50.7442 11.3182 50.3362 11.2622 49.9122 11.2622C49.4802 11.2622 49.1082 11.3182 48.7962 11.4302C48.4922 11.5342 48.2562 11.6822 48.0882 11.8742C47.9202 12.0662 47.8322 12.2942 47.8242 12.5582C47.8242 12.7902 47.9002 12.9822 48.0522 13.1342C48.2042 13.2782 48.4042 13.3982 48.6522 13.4942C48.9082 13.5902 49.1842 13.6822 49.4802 13.7702C49.7842 13.8502 50.0882 13.9422 50.3922 14.0462C50.6962 14.1502 50.9762 14.2822 51.2322 14.4422C51.4882 14.6022 51.6922 14.8062 51.8442 15.0542C52.0042 15.2942 52.0842 15.5982 52.0842 15.9662C52.0842 16.5102 51.9282 16.9862 51.6162 17.3942C51.3122 17.8022 50.8842 18.1182 50.3322 18.3422C49.7802 18.5582 49.1402 18.6662 48.4122 18.6662ZM57.7717 12.0782C58.3237 12.0782 58.7917 12.1902 59.1757 12.4142C59.5597 12.6382 59.8277 12.9702 59.9797 13.4102C60.1397 13.8422 60.1557 14.3702 60.0277 14.9942L59.3197 18.5462H57.8917L58.5997 15.0182C58.7117 14.4822 58.6637 14.0662 58.4557 13.7702C58.2477 13.4742 57.8677 13.3262 57.3157 13.3262C56.7557 13.3262 56.2877 13.4822 55.9117 13.7942C55.5437 14.0982 55.2917 14.5702 55.1557 15.2102L54.4957 18.5462H53.0677L54.8437 9.6422H56.2717L55.4077 13.9742L55.1077 13.3862C55.4117 12.9382 55.7917 12.6102 56.2477 12.4022C56.7117 12.1862 57.2197 12.0782 57.7717 12.0782ZM64.4028 18.6182C63.7788 18.6182 63.2348 18.5022 62.7708 18.2702C62.3068 18.0382 61.9468 17.7142 61.6908 17.2982C61.4428 16.8742 61.3188 16.3822 61.3188 15.8222C61.3188 15.1022 61.4788 14.4622 61.7988 13.9022C62.1268 13.3342 62.5748 12.8902 63.1428 12.5702C63.7188 12.2422 64.3748 12.0782 65.1108 12.0782C65.7348 12.0782 66.2748 12.1942 66.7308 12.4262C67.1948 12.6502 67.5548 12.9742 67.8108 13.3982C68.0668 13.8142 68.1948 14.3062 68.1948 14.8742C68.1948 15.5862 68.0308 16.2262 67.7028 16.7942C67.3748 17.3622 66.9268 17.8102 66.3588 18.1382C65.7908 18.4582 65.1388 18.6182 64.4028 18.6182ZM64.4868 17.4062C64.9268 17.4062 65.3148 17.3022 65.6508 17.0942C65.9948 16.8782 66.2628 16.5862 66.4548 16.2182C66.6548 15.8502 66.7548 15.4262 66.7548 14.9462C66.7548 14.4342 66.6028 14.0302 66.2988 13.7342C66.0028 13.4382 65.5748 13.2902 65.0148 13.2902C64.5828 13.2902 64.1948 13.3982 63.8508 13.6142C63.5068 13.8222 63.2348 14.1102 63.0348 14.4782C62.8428 14.8462 62.7468 15.2702 62.7468 15.7502C62.7468 16.2622 62.8988 16.6662 63.2028 16.9622C63.5068 17.2582 63.9348 17.4062 64.4868 17.4062ZM72.7977 18.6182C72.2617 18.6182 71.7977 18.5222 71.4057 18.3302C71.0217 18.1382 70.7257 17.8542 70.5177 17.4782C70.3097 17.0942 70.2137 16.6222 70.2297 16.0622C70.2377 15.2622 70.3777 14.5622 70.6497 13.9622C70.9217 13.3622 71.3057 12.8982 71.8017 12.5702C72.2977 12.2422 72.8897 12.0782 73.5777 12.0782C74.1137 12.0782 74.5937 12.1902 75.0177 12.4142C75.4497 12.6302 75.7897 12.9462 76.0377 13.3622C76.2857 13.7782 76.4097 14.2822 76.4097 14.8742C76.4097 15.4182 76.3177 15.9182 76.1337 16.3742C75.9577 16.8302 75.7057 17.2262 75.3777 17.5622C75.0497 17.8982 74.6657 18.1582 74.2257 18.3422C73.7937 18.5262 73.3177 18.6182 72.7977 18.6182ZM68.5137 20.8742L70.2537 12.1502H71.6097L71.3097 13.6502L70.9257 15.3062L70.7217 16.9742L69.9417 20.8742H68.5137ZM72.7137 17.3942C73.1537 17.3942 73.5417 17.2902 73.8777 17.0822C74.2217 16.8742 74.4897 16.5862 74.6817 16.2182C74.8817 15.8502 74.9817 15.4262 74.9817 14.9462C74.9817 14.4342 74.8297 14.0342 74.5257 13.7462C74.2217 13.4502 73.7937 13.3022 73.2417 13.3022C72.8097 13.3022 72.4217 13.4062 72.0777 13.6142C71.7337 13.8222 71.4617 14.1102 71.2617 14.4782C71.0697 14.8462 70.9737 15.2702 70.9737 15.7502C70.9737 16.2622 71.1217 16.6662 71.4177 16.9622C71.7217 17.2502 72.1537 17.3942 72.7137 17.3942Z" fill="#12805D"/>
</svg>
