<svg width="576" height="433" viewBox="0 0 576 433" fill="none" xmlns="http://www.w3.org/2000/svg">
<path d="M242.226 19.0259L528.083 43.3374C531.734 43.6257 535.284 44.6831 538.498 46.4401C541.712 48.1972 544.518 50.6143 546.732 53.5326C555.359 64.8884 568.463 86.5178 574.055 117.895C578.596 143.399 569.585 190.454 553.092 216.436C551.182 219.406 548.684 221.955 545.752 223.924C542.82 225.893 539.516 227.241 536.043 227.886L256.899 280.547L242.226 19.0259Z" fill="#E1ECFF"/>
<path d="M257.13 280.524C311.595 275.28 350.117 212.557 343.172 140.429C336.227 68.3003 286.444 14.0802 231.979 19.3245C177.514 24.5689 138.992 87.2919 145.937 159.42C152.882 231.548 202.665 285.769 257.13 280.524Z" fill="#F0F4FF"/>
<path d="M253.059 265.172C299.6 260.691 332.371 205.573 326.256 142.063C320.141 78.553 277.454 30.7008 230.914 35.1822C184.373 39.6635 151.602 94.7814 157.717 158.291C163.833 221.801 206.519 269.654 253.059 265.172Z" fill="#C7DCF9"/>
<g style="mix-blend-mode:multiply" opacity="0.37">
<path d="M264.005 26.6643C264.005 26.6643 212.166 120.562 249.786 211.252C224.62 253.601 231.458 300.122 236.274 301.973C241.089 303.824 405.427 244.347 409.976 247.562C414.524 250.777 368.889 0 368.889 0L264.005 26.6643Z" fill="#C7DCF9"/>
</g>
<path d="M332.446 26.6641C332.446 26.6641 375.665 63.2882 383.1 146.285C389.374 215.973 342.108 264.439 342.108 264.439L500.203 234.637C500.203 234.637 534.482 189.936 534.482 133.47C534.482 71.1777 493.043 40.3569 493.043 40.3569L332.446 26.6641Z" fill="#99ADF9"/>
<g style="mix-blend-mode:multiply" opacity="0.58">
<path d="M324.65 185.081C321.513 197.292 316.526 211.589 316.526 211.589L254.931 245.374L256.9 280.571L536.043 227.901C539.516 227.257 542.82 225.909 545.752 223.94C548.684 221.971 551.182 219.422 553.093 216.451C559.892 205.731 565.421 191.426 569.248 176.533L324.65 185.081Z" fill="#E1ECFF"/>
</g>
<path d="M409.976 73.6717C409.976 73.6717 433.589 70.6602 437.306 88.5723C440.02 101.661 422.461 107.339 422.461 107.339" stroke="#1C3177" stroke-width="9" stroke-miterlimit="10" stroke-linecap="round"/>
<path d="M429.017 161.907C429.017 161.907 453.886 168.385 449.125 186.65C446.169 197.99 426.186 200.202 426.186 200.202" stroke="#1C3177" stroke-width="9" stroke-miterlimit="10" stroke-linecap="round"/>
<path d="M471.853 107.355C464.849 106.986 461.304 116.099 461.406 125.847C461.508 135.596 463.414 150.943 472.66 151.398C481.907 151.853 483.64 140.952 482.91 129.377C482.181 117.801 479.468 107.755 471.853 107.355Z" fill="#1C3177"/>
<path d="M481.122 117.456C481.122 117.456 472.927 120.287 473.06 127.314C473.194 134.341 477.036 139.972 482.471 141.148C484.338 133.288 483.87 125.053 481.122 117.456Z" fill="#FF97C9"/>
<path d="M316.525 211.565C316.525 211.565 174.115 209.409 141.961 217.055C109.807 224.701 115.437 245.79 125.084 255.232C134.73 264.674 134.926 278.759 111.822 280.555C88.7182 282.351 25.8141 287.182 17.7756 309.486C9.73713 331.79 42.0872 350.682 107.964 348.471C173.84 346.259 251.637 334.958 268.114 348.651C284.591 362.344 244.202 364.336 261.887 382.028C279.572 399.721 372.41 392.882 403.757 380.225C435.103 367.567 451.595 346.463 433.495 325.163C415.395 303.863 391.224 298.797 397.365 286.978C402.588 276.924 402.361 262.125 389.311 255.561C368.026 259.247 257.142 280.524 257.142 280.524C257.142 280.524 252.821 268.086 265.447 262.721C278.074 257.357 302.228 248.887 316.525 211.565Z" fill="#FEA691"/>
<g style="mix-blend-mode:multiply" opacity="0.21">
<path d="M215.366 211.864C215.366 211.864 294.747 223.29 265.448 262.722C321.913 279.097 374.261 201.802 374.261 201.802L282.364 183.019L215.366 211.864Z" fill="#FEA691"/>
</g>
<g style="mix-blend-mode:multiply" opacity="0.21">
<path d="M308.024 270.8C308.024 270.8 390.84 260.651 399.781 280.548C420.359 270.094 415.536 244.378 415.536 244.378L335.951 252.417L308.024 270.8Z" fill="#FEA691"/>
</g>
<g style="mix-blend-mode:multiply" opacity="0.21">
<path d="M58.4859 287.472C42.9657 293.809 34.2606 319.799 67.2145 326.096C100.168 332.394 238.423 318.191 260.256 330.111C282.089 342.032 271.863 356.666 271.863 356.666L6.39646 375.394L0.773438 295.817L58.4859 287.472Z" fill="#FEA691"/>
</g>
<path d="M109.815 425.624C104.019 415.657 127.766 403.391 152.164 402.991C176.562 402.591 195.972 413.971 194.231 421.742C192.49 429.514 165.135 432.902 150.533 432.996C135.93 433.09 113.163 431.389 109.815 425.624Z" fill="#FEA691"/>
</svg>
