<svg width="402" height="298" viewBox="0 0 402 298" fill="none" xmlns="http://www.w3.org/2000/svg">
<path d="M37.4471 126.495C37.4471 126.495 -4.93826 141.287 0.816403 178.199C6.57107 215.111 48.4446 232.582 54.001 229.009C59.5574 225.435 25.2276 206.387 21.8523 179.79C18.477 153.193 47.1535 152.192 47.1535 152.192L37.4471 126.495Z" fill="#FF8D76"/>
<path d="M7.35042 235.805C7.35042 235.805 3.33414 191.843 52.2488 193.54C74.9308 232.813 52.2488 254.079 52.2488 254.079L7.35042 235.805Z" fill="#FFD3B3"/>
<path d="M306.74 40.6999C306.74 40.6999 315.363 19.4335 322.335 12.8165C329.307 6.19958 334.979 3.24847 338.17 15.6524C341.36 28.0562 347.267 49.7976 344.547 61.2609C320.209 51.6882 306.74 40.6999 306.74 40.6999Z" fill="#FF8D76"/>
<path d="M306.104 172.73C306.104 172.73 323.474 191.359 336.537 192.779C349.601 194.199 363.794 194.116 368.815 188.366C373.837 182.616 374.81 172.375 372.439 167.731C370.069 163.088 355.66 159.067 348.176 155.6C325.111 157.098 306.104 172.73 306.104 172.73Z" fill="#FF8D76"/>
<path d="M265.863 38.9295C265.863 38.9295 259.126 19.5536 255.484 13.5222C251.841 7.49092 249.337 -2.19242 240.834 1.23364C232.331 4.6597 223.464 30.7724 222.851 42.3509C222.237 53.9294 217.059 72.9503 212.928 73.0702C208.796 73.19 149.359 54.2845 108.011 57.9457C66.6631 61.6069 47.4025 79.6917 38.1849 104.859C28.9673 130.027 30.2722 161.451 49.1732 174.565C68.0741 187.679 68.669 189.321 66.6631 192.286C64.6573 195.251 59.3361 198.077 64.0625 204.104C68.7889 210.131 81.6677 209.776 98.323 207.175C114.978 204.574 139.311 201.978 149.244 202.449C159.176 202.919 168.269 202.449 171.58 198.197C174.891 193.946 175.181 189.925 174.531 187.799C189.286 188.86 214.818 187.264 227.937 182.483C243.001 197.722 254.165 203.749 265.863 205.538C277.562 207.327 293.152 206.248 297.763 202.347C302.374 198.446 299.709 179.582 282.874 171.826C305.205 182.501 332.263 178.743 346.322 169.737C362.853 159.183 368.188 142.661 364.407 129.035C361.7 119.264 358.874 113.357 358.173 96.0934C357.472 78.8294 353.765 56.9451 338.64 48.2808C323.516 39.6165 303.116 32.6676 265.863 38.9295Z" fill="#FEA691"/>
<path d="M286.184 36.6701C286.184 36.6701 302.249 48.1056 306.74 63.3223C311.232 78.539 314.224 105.542 304.615 120.348C295.005 135.154 273.407 135.565 268.381 136.104C257.775 137.243 252.786 149.652 260.081 157.209C267.375 164.767 302.434 182.289 302.434 182.289L350.057 179.711L382.593 143.32L366.999 128.357C366.999 128.357 354.456 134.463 343.998 130.087C333.54 125.711 331.866 111.974 329.187 95.826C326.508 79.6779 327.44 49.4936 297.832 36.624C289.177 30.9339 286.184 36.6701 286.184 36.6701Z" fill="#FFD3B3"/>
<path d="M219.3 167.639C219.3 167.639 222.841 176.861 226.217 181.5" stroke="#FF8D76" stroke-width="9" stroke-miterlimit="10" stroke-linecap="round"/>
<path d="M108.016 124.35C108.016 124.35 130.818 129.076 137.066 147.507C143.314 165.938 129.739 180.472 117.215 185.318" stroke="#FF8D76" stroke-width="9" stroke-miterlimit="10" stroke-linecap="round"/>
<path d="M130.153 176.626C130.153 176.626 144.047 177.387 155.155 176.626C166.263 175.866 171.815 181.302 174.521 187.799" stroke="#FF8D76" stroke-width="9" stroke-miterlimit="10" stroke-linecap="round"/>
<path d="M248.848 44.9561C248.848 44.9561 239.335 39.8839 239.275 31.2519C239.215 22.6199 240.34 12.8074 243.425 11.8852C246.51 10.963 259.49 30.6893 258.642 42.6137C252.832 44.6702 248.848 44.9561 248.848 44.9561Z" fill="#FFD3B3"/>
<path d="M265.863 38.9297C265.863 38.9297 255.718 41.6456 250.028 44.9564" stroke="#FF8D76" stroke-width="9" stroke-miterlimit="10" stroke-linecap="round"/>
<path d="M118.409 247.877C118.409 247.877 166.793 230.355 192.136 211.371C192.744 215.317 193.732 219.194 195.087 222.95L205.13 221.059L208.556 229.622L237.86 228.146L244.241 237.83L255.483 241.025C255.483 241.025 234.867 279.422 206.864 297.502C205.093 293.011 203.378 291.295 201.33 291.355C199.283 291.415 191.186 292.656 189.162 291.946C187.137 291.236 190.623 282.378 190.623 282.378C190.623 282.378 172.737 281.252 163.519 277.766C154.302 274.28 147.749 267.664 145.075 266.183C142.4 264.703 128.936 262.997 127.825 261.111C126.713 259.225 131.49 256.855 129.715 253.664C127.94 250.473 118.409 247.877 118.409 247.877Z" fill="#E1ECFF"/>
<path d="M78.3198 240.947L85.4071 249.454L99.5079 245.198L95.6484 242.206L97.8525 238.738L78.3198 240.947Z" fill="#E1ECFF"/>
<path d="M284.22 222.866C284.22 222.866 290.44 224.914 295.245 229.783C293.761 230.092 292.36 230.716 291.138 231.613C289.915 232.509 288.899 233.657 288.158 234.98C288.158 234.98 292.649 234.901 295.245 236.714C297.841 238.526 296.43 249.948 298.399 259.239C300.368 268.53 301.862 275.309 301.862 277.222C301.862 279.136 307.22 289.824 307.22 289.824C307.22 289.824 364.01 295.026 401.107 279.745C393.628 277.619 383.308 272.971 383.308 272.971L388.034 267.769C388.034 267.769 374.957 261.074 373.38 259.423C371.803 257.773 379.983 222.866 379.983 222.866C379.983 222.866 365.255 223.789 352.575 222.866C339.894 221.944 311.683 212.925 284.22 222.866Z" fill="#E1ECFF"/>
<path d="M252.154 285.453C252.154 285.453 260.957 274.345 273.305 266.548C276.732 275.706 279.567 295.021 279.567 295.021C279.567 295.021 272.24 296.617 265.863 295.021C259.486 293.426 265.388 286.399 252.154 285.453Z" fill="#E1ECFF"/>
<path d="M309.65 128.03C312.371 124.217 332.489 122.847 335.362 127.048C338.234 131.249 330.806 140.36 323.594 140.36C316.382 140.36 306.007 133.144 309.65 128.03Z" fill="#413F4C"/>
<path d="M286.184 124.47C289.25 124.47 291.736 121.985 291.736 118.918C291.736 115.852 289.25 113.367 286.184 113.367C283.118 113.367 280.632 115.852 280.632 118.918C280.632 121.985 283.118 124.47 286.184 124.47Z" fill="#413F4C"/>
<path d="M348.217 124.47C351.284 124.47 353.769 121.985 353.769 118.918C353.769 115.852 351.284 113.367 348.217 113.367C345.151 113.367 342.666 115.852 342.666 118.918C342.666 121.985 345.151 124.47 348.217 124.47Z" fill="#413F4C"/>
<path d="M302.387 99.2888C303.051 95.2679 296.591 92.9024 291.256 92.5566C285.921 92.2107 280.913 93.6632 281.038 96.0195C281.162 98.3758 301.096 107.091 302.387 99.2888Z" fill="#FFD3B3"/>
<path d="M332.369 99.2011C331.447 95.2448 336.699 93.1191 341.158 92.9346C345.617 92.7502 349.956 94.318 350.057 96.6235C350.159 98.9291 334.131 106.879 332.369 99.2011Z" fill="#FFD3B3"/>
<path d="M311.393 152.473C311.393 152.473 319.407 151.606 323.313 145.381C327.924 151.763 334.624 150.265 334.624 150.265C334.624 150.265 336.007 162.867 324.581 163.812C312.597 164.808 311.393 152.473 311.393 152.473Z" fill="#FF6EA9"/>
<path d="M323.359 145.4C323.359 145.4 324.281 152.962 324.461 157.214" stroke="#EA4E95" stroke-width="7" stroke-miterlimit="10" stroke-linecap="round"/>
<path d="M302.171 150.583C302.171 150.583 314.713 156.835 323.382 145.381C329.27 153.949 341.186 149.476 341.186 149.476" stroke="#413F4C" stroke-width="8" stroke-linecap="round" stroke-linejoin="round"/>
<path d="M171.192 224.393L199.698 237.798L182.051 257.487L141.487 238.605L171.192 224.393Z" fill="#99ADF9"/>
<path d="M212.222 244.096L243.646 257.487" stroke="#99ADF9" stroke-width="7" stroke-miterlimit="10" stroke-linecap="round"/>
<path d="M321.994 236.28L328.196 269.877" stroke="#99ADF9" stroke-width="7" stroke-miterlimit="10" stroke-linecap="round"/>
<path d="M334.333 236.28L340.535 269.877" stroke="#99ADF9" stroke-width="7" stroke-miterlimit="10" stroke-linecap="round"/>
<path d="M346.677 236.28L352.879 269.877" stroke="#99ADF9" stroke-width="7" stroke-miterlimit="10" stroke-linecap="round"/>
<path d="M205.633 251.801L237.062 265.192" stroke="#99ADF9" stroke-width="7" stroke-miterlimit="10" stroke-linecap="round"/>
<path d="M199.698 259.853L231.123 273.243" stroke="#99ADF9" stroke-width="7" stroke-miterlimit="10" stroke-linecap="round"/>
<path d="M270.903 193.54C270.903 193.54 277.257 195.597 275.92 203.767" stroke="#FF8D76" stroke-width="9" stroke-miterlimit="10" stroke-linecap="round"/>
<path d="M287.572 192.138C287.572 192.138 291.842 194.49 290.505 202.661" stroke="#FF8D76" stroke-width="9" stroke-miterlimit="10" stroke-linecap="round"/>
</svg>
