<svg width="436" height="234" viewBox="0 0 436 234" fill="none" xmlns="http://www.w3.org/2000/svg">
<path d="M115.378 233.681C63.5134 234.525 39.7314 233.597 58.5377 231.573C77.4284 229.549 58.4534 229.296 29.1897 229.549C-0.0739477 229.802 -12.977 227.272 30.2861 224.658C73.549 222.043 232.18 219.345 213.964 222.718C195.748 226.091 182.339 226.85 193.387 228.115C204.434 229.38 186.724 232.501 115.378 233.681Z" fill="#99ADF9"/>
<path d="M331.356 217.068C277.551 217.574 252.926 219.176 272.491 220.778C292.141 222.381 283.286 222.971 252.841 223.477C222.397 223.983 198.446 227.188 243.312 228.874C288.261 230.477 452.711 229.043 433.736 225.923C414.761 222.802 400.846 222.381 412.231 220.694C423.785 219.092 405.4 216.393 331.356 217.068Z" fill="#99ADF9"/>
<path d="M202.747 223.056H45.2126C43.8633 223.056 42.6826 221.959 42.6826 220.526V214.116C42.6826 212.767 43.779 211.586 45.2126 211.586H202.832C204.181 211.586 205.362 212.683 205.362 214.116V220.526C205.277 221.959 204.181 223.056 202.747 223.056Z" fill="#E1ECFF"/>
<path d="M205.952 223.056H107.704C106.354 223.056 105.174 221.959 105.174 220.526V214.116C105.174 212.767 106.27 211.586 107.704 211.586H205.952C207.302 211.586 208.482 212.683 208.482 214.116V220.526C208.482 221.959 207.386 223.056 205.952 223.056Z" fill="#CDE0FC"/>
<path d="M162.436 211.755H47.7428C45.8875 211.755 44.2008 210.574 43.5261 208.803L17.3828 136.529C16.2865 133.578 18.4791 130.542 21.5995 130.542H136.293C138.148 130.542 139.835 131.722 140.509 133.493L166.653 205.767C167.665 208.634 165.556 211.755 162.436 211.755Z" fill="#CDE0FC"/>
<path d="M155.436 207.622H50.6101C48.7548 207.622 47.0681 206.442 46.3935 204.671L23.2861 140.662C22.1898 137.71 24.3825 134.674 27.5028 134.674H132.413C134.269 134.674 135.955 135.855 136.63 137.626L159.737 201.635C160.749 204.502 158.557 207.622 155.436 207.622Z" fill="#FF8D76"/>
<path d="M60.8991 219.007H49.9358C49.5141 219.007 49.1768 218.67 49.1768 218.248V216.393C49.1768 215.971 49.5141 215.634 49.9358 215.634H60.8991C61.3208 215.634 61.6581 215.971 61.6581 216.393V218.248C61.6581 218.67 61.3208 219.007 60.8991 219.007Z" fill="#CDE0FC"/>
<path d="M76.1633 219.007H65.1999C64.7783 219.007 64.4409 218.67 64.4409 218.248V216.393C64.4409 215.971 64.7783 215.634 65.1999 215.634H76.1633C76.5849 215.634 76.9223 215.971 76.9223 216.393V218.248C77.0066 218.67 76.5849 219.007 76.1633 219.007Z" fill="#CDE0FC"/>
<path d="M69.5851 201.129H129.883C132.919 201.129 134.606 197.587 132.751 195.225L93.2828 145.047C91.5961 142.854 88.1384 143.36 87.0421 145.89L66.2118 196.069C65.1998 198.43 66.9708 201.129 69.5851 201.129Z" fill="#FEC272"/>
<path d="M87.3796 158.962L94.548 180.72C94.8853 181.816 95.9816 182.576 97.1623 182.576H98.2586C99.6923 182.576 100.704 181.479 100.62 180.045L98.6803 158.456C98.596 157.107 97.4153 156.01 96.066 156.01L89.741 155.842C87.97 155.757 86.7893 157.36 87.3796 158.962Z" fill="white"/>
<path d="M103.234 189.407C103.403 191.599 101.716 193.37 99.5236 193.37C97.3309 193.37 95.3912 191.599 95.2226 189.407C95.0539 187.214 96.7406 185.443 98.9332 185.443C101.126 185.443 103.066 187.214 103.234 189.407Z" fill="white"/>
<path d="M0.853516 119.578L11.2265 127.759C11.2265 127.759 14.0095 123.879 19.9972 121.855C25.9848 119.831 34.0808 121.349 34.0808 121.349L38.2975 97.5674C38.2975 97.5674 33.2375 113.422 25.8162 114.518C18.3948 115.615 12.3228 105.663 12.3228 105.663C12.3228 105.663 16.7082 116.542 12.4915 119.831C8.10618 123.205 0.853516 119.578 0.853516 119.578Z" fill="#1C3177"/>
<path d="M170.279 188.985L178.544 201.55L200.049 176.588L178.544 209.309L170.279 188.985Z" fill="#E1EAF6"/>
<path d="M182.592 109.711L201.482 75.978L187.146 110.639L182.592 109.711Z" fill="#E1EAF6"/>
<path d="M278.395 125.144C277.13 126.747 275.443 128.602 273.672 130.626C264.395 140.746 249.553 154.661 241.878 158.793C232.686 163.685 224.59 164.865 220.795 159.468C217 154.071 216.747 149.854 222.566 143.36C228.385 136.867 250.227 107.94 261.781 98.4949C269.961 91.8326 280.166 94.8686 283.961 101.447C287.84 107.856 286.238 115.446 278.395 125.144Z" fill="#F774B9"/>
<path d="M273.672 130.542C264.395 140.662 249.553 154.577 241.878 158.709C232.686 163.6 224.59 164.781 220.795 159.384C235.047 158.203 262.034 127.674 262.034 127.674L273.672 130.542Z" fill="#F261B4"/>
<path d="M239.349 155.504C231.506 170.516 217.675 161.155 206.88 150.613C196.086 140.071 184.026 123.289 182.255 118.313C181.665 116.711 181.496 115.024 181.665 113.338C181.918 109.88 183.689 106.844 186.134 106.844C189.761 106.844 218.181 125.903 227.626 133.746C234.626 139.565 239.855 144.541 240.529 149.77C240.698 151.709 240.361 153.565 239.349 155.504Z" fill="#F774B9"/>
<path d="M239.349 155.504C231.506 170.516 217.675 161.155 206.88 150.613C196.086 140.071 184.026 123.289 182.255 118.313C181.665 116.711 181.496 115.024 181.665 113.338C183.604 113.591 185.628 114.687 187.652 116.88C187.652 116.88 211.856 148.589 224.084 154.83C228.385 157.022 234.457 154.324 240.445 149.77C240.698 151.709 240.361 153.565 239.349 155.504Z" fill="#F261B4"/>
<path d="M189.001 117.892C188.158 122.024 186.303 131.975 182.761 133.578C179.134 135.18 172.725 133.409 171.123 129.277C169.52 125.06 173.653 119.578 177.701 114.35C181.749 109.121 184.279 106.844 186.556 107.013C188.833 107.181 189.845 113.422 189.001 117.892Z" fill="#F774B9"/>
<path d="M171.544 126.915C171.544 127.337 171.123 124.807 171.544 127.337C171.966 129.867 176.014 129.614 176.604 128.518C178.544 125.06 185.797 109.964 184.447 108.784C183.098 107.603 171.797 119.831 171.544 126.915Z" fill="#FF97C9"/>
<path d="M362.053 191.683C362.053 191.683 382.799 189.912 392.666 173.467C402.533 157.022 386.679 118.482 385.751 103.218C384.823 87.9533 397.389 75.978 410.545 87.9533C423.701 99.9286 423.364 139.397 418.641 157.866C413.834 176.419 399.582 190.587 380.607 197.249C367.198 201.972 359.523 199.02 359.523 199.02L362.053 191.683Z" fill="#F774B9"/>
<path d="M302.345 199.948C297.791 214.706 285.732 222.381 272.913 223.73C260.094 225.079 237.324 226.091 235.132 224.658C234.12 223.983 233.614 222.549 233.782 220.947C233.951 219.007 235.047 216.73 237.156 214.959C241.035 211.67 254.95 211.67 254.95 211.67C254.95 211.67 252.42 211.333 248.794 208.55C245.167 205.683 236.65 200.032 243.396 179.118C250.143 158.203 269.961 153.396 289.695 160.311C294.249 161.914 297.623 165.54 299.9 170.094C304.454 178.78 305.044 191.262 302.345 199.948Z" fill="#F774B9"/>
<path d="M267.6 211.417C267.6 212.176 266.926 212.682 266.251 212.682C266.082 212.682 246.601 212.345 240.614 214.032C235.638 215.465 235.385 218.586 235.301 220.525V220.947C235.132 222.634 236.06 222.802 236.228 222.802C236.987 222.887 237.493 223.561 237.409 224.32C237.325 224.995 236.734 225.501 236.06 225.501C235.975 225.501 235.975 225.501 235.891 225.501C234.373 225.332 232.265 223.899 232.602 220.694V220.272C232.771 218.164 233.108 213.357 239.855 211.417C242.3 210.743 246.77 210.321 251.24 210.152C249.047 209.478 247.107 208.719 245.758 207.791C238.674 202.815 237.409 194.804 241.457 180.214C244.493 169.335 250.649 163.347 256.89 159.974C257.565 159.637 258.408 159.89 258.661 160.649C258.914 161.239 258.661 161.914 258.071 162.251C252.42 165.287 246.77 170.853 243.987 180.889C239.686 196.49 242.216 201.972 247.276 205.598C251.999 208.887 266.167 209.984 266.335 209.984C267.01 210.068 267.6 210.658 267.6 211.417Z" fill="#F774B9"/>
<path d="M302.345 199.948C297.791 214.706 285.732 222.381 272.913 223.73C260.094 225.079 237.324 226.091 235.132 224.658C234.12 223.983 233.614 222.549 233.782 220.947C238.505 221.453 255.962 222.549 277.383 212.092C297.707 202.225 299.9 178.78 299.984 170.01C304.454 178.78 305.044 191.262 302.345 199.948Z" fill="#F774B9"/>
<path d="M243.312 186.202C243.312 186.202 249.89 196.406 259.336 202.225C268.781 208.044 274.01 209.225 274.01 209.225C274.01 209.225 265.492 211.164 257.312 210.996C249.131 210.827 242.975 206.189 240.867 198.767C238.674 191.262 243.312 186.202 243.312 186.202Z" fill="#F774B9"/>
<path d="M304.623 221.284C303.358 221.284 302.177 221.284 300.996 221.284C298.045 221.284 295.093 221.2 292.31 221.031C287.672 220.778 283.371 220.272 279.323 219.598C254.613 215.212 241.288 202.056 242.3 173.805C243.144 150.866 250.143 123.373 255.288 106.001C255.794 104.314 256.215 102.796 256.721 101.362C258.408 95.7963 259.842 91.7483 260.432 89.8086C260.685 89.0496 260.854 88.6279 260.854 88.6279L331.862 76.2309L332.537 76.0623C332.537 76.0623 335.067 81.8813 338.778 91.0736C339.452 92.6759 340.127 94.3626 340.802 96.1336C341.561 98.0733 342.404 100.097 343.247 102.29C349.235 117.301 356.656 136.698 362.644 154.492C364.415 159.721 366.017 164.781 367.451 169.504C368.8 173.973 369.981 178.274 370.909 182.154C377.149 207.369 345.44 220.863 304.623 221.284Z" fill="#FF97C9"/>
<path d="M333.211 212.092H317.694C312.803 212.092 304.707 212.345 302.261 216.983C301.502 218.333 301.165 219.851 301.08 221.284C298.129 221.284 295.177 221.2 292.394 221.031L291.719 217.489C291.719 217.489 291.719 217.489 295.093 213.188C298.382 209.056 309.092 186.961 309.682 185.864C309.429 186.623 305.466 197.755 312.128 204.839C318.622 211.923 331.778 212.092 333.211 212.092Z" fill="#F774B9"/>
<path d="M283.539 217.236C283.455 217.321 283.37 217.321 283.286 217.405C282.105 218.164 280.756 218.923 279.322 219.598C254.528 215.212 241.288 202.056 242.3 173.805C242.975 155.926 247.36 135.349 251.661 118.904C252.926 114.181 254.107 109.88 255.287 106.001C258.408 102.965 262.877 100.266 268.949 100.266C283.033 100.266 291.045 104.145 296.779 148.42C302.345 192.274 295.093 209.393 283.539 217.236Z" fill="#FFBDE0"/>
<path opacity="0.5" d="M283.539 217.236C283.455 217.321 283.37 217.321 283.286 217.405C282.105 218.164 280.756 218.923 279.322 219.598C254.528 215.212 241.288 202.056 242.3 173.805C242.975 155.926 247.36 135.349 251.661 118.904C250.818 131.048 249.974 162.504 262.034 188.141C269.287 203.574 277.214 212.345 283.539 217.236Z" fill="#F9BC93"/>
<path d="M338.862 91.0736C333.633 94.6999 323.092 100.856 309.008 104.483C303.611 105.832 297.707 106.844 291.382 107.181C270.889 108.278 261.022 104.145 256.721 101.194C258.408 95.6276 259.842 91.5796 260.432 89.6399C264.564 90.9892 275.106 93.4349 292.647 91.5795C295.768 91.2422 298.888 90.6519 301.924 89.8929C314.574 86.6882 325.706 80.1102 331.862 75.9779L332.537 75.8936C332.621 75.9779 335.067 81.8812 338.862 91.0736Z" fill="#738DE0"/>
<path d="M309.008 104.483C303.611 105.832 297.707 106.844 291.382 107.181C270.889 108.278 261.022 104.145 256.721 101.194C258.408 95.6276 259.842 91.5796 260.432 89.6399C264.564 90.9892 275.106 93.4349 292.647 91.5795C295.768 91.2422 298.888 90.6519 301.924 89.8929L309.008 104.483Z" fill="#5A7FDB"/>
<path d="M276.877 111.061C276.877 111.567 276.877 112.073 276.792 112.579C276.118 117.807 271.985 121.855 266.925 121.855C261.444 121.855 256.974 116.964 256.974 110.976C256.974 108.193 257.902 105.663 259.588 103.724C261.444 101.531 264.058 100.182 266.925 100.182C272.407 100.266 276.877 105.073 276.877 111.061Z" fill="#FCBD92"/>
<path d="M276.877 111.061C276.877 111.567 276.877 112.073 276.792 112.579C275.021 114.771 272.323 116.121 269.455 116.121C263.974 116.121 259.504 111.229 259.504 105.326C259.504 104.82 259.504 104.314 259.588 103.808C261.444 101.615 264.058 100.266 266.925 100.266C272.407 100.266 276.877 105.073 276.877 111.061Z" fill="#FFD3B3"/>
<path d="M266.251 113.422C269.744 113.422 272.576 112.063 272.576 110.386C272.576 108.709 269.744 107.35 266.251 107.35C262.758 107.35 259.926 108.709 259.926 110.386C259.926 112.063 262.758 113.422 266.251 113.422Z" fill="#1C3177"/>
<path d="M264.733 120.59V112.579C264.733 111.904 265.323 111.314 266.082 111.314C266.841 111.314 267.432 111.904 267.432 112.579V120.59C267.432 121.265 266.841 121.855 266.082 121.855C265.323 121.855 264.733 121.265 264.733 120.59Z" fill="#1C3177"/>
<path d="M362.728 154.492C360.536 156.6 357.584 158.371 353.789 157.865C343.753 156.516 344.85 152.215 342.91 142.179C340.97 132.144 326.887 133.324 328.067 113.59C328.826 100.434 336.163 96.9768 340.97 96.2178C341.729 98.1574 342.573 100.181 343.416 102.374C349.319 117.301 356.741 136.698 362.728 154.492Z" fill="#F774B9"/>
<path d="M369.812 199.948C365.258 214.706 353.198 222.381 340.379 223.73C327.561 225.079 304.791 226.091 302.598 224.658C301.586 223.983 301.08 222.549 301.249 220.947C301.417 219.007 302.514 216.73 304.622 214.959C308.501 211.67 322.416 211.67 322.416 211.67C322.416 211.67 319.886 211.333 316.26 208.55C312.634 205.683 304.116 200.032 310.863 179.118C317.609 158.203 337.428 153.396 357.162 160.311C361.716 161.914 365.089 165.54 367.366 170.094C371.92 178.78 372.51 191.262 369.812 199.948Z" fill="#FF97C9"/>
<path d="M335.067 211.417C335.067 212.176 334.392 212.682 333.717 212.682C333.549 212.682 314.068 212.345 308.08 214.032C303.104 215.465 302.851 218.586 302.767 220.525V220.947C302.598 222.634 303.526 222.802 303.695 222.802C304.454 222.887 304.96 223.561 304.875 224.32C304.791 224.995 304.201 225.501 303.526 225.501C303.442 225.501 303.442 225.501 303.357 225.501C301.839 225.332 299.731 223.899 300.068 220.694V220.272C300.237 218.164 300.574 213.357 307.321 211.417C309.767 210.743 314.236 210.321 318.706 210.152C316.513 209.478 314.574 208.719 313.224 207.791C306.14 202.815 304.875 194.804 308.923 180.214C311.959 169.335 318.116 163.347 324.356 159.974C325.031 159.637 325.874 159.89 326.127 160.649C326.38 161.239 326.127 161.914 325.537 162.251C319.887 165.287 314.236 170.853 311.453 180.889C307.152 196.49 309.682 201.972 314.742 205.598C319.465 208.887 333.633 209.984 333.802 209.984C334.476 210.068 335.067 210.658 335.067 211.417Z" fill="#F774B9"/>
<path d="M369.812 199.948C365.258 214.706 353.198 222.381 340.379 223.73C327.561 225.079 304.791 226.091 302.598 224.658C301.586 223.983 301.08 222.549 301.249 220.947C305.971 221.453 323.428 222.549 344.849 212.092C365.173 202.225 367.366 178.78 367.45 170.01C371.92 178.78 372.51 191.262 369.812 199.948Z" fill="#FF8AC7"/>
<path d="M310.779 186.202C310.779 186.202 317.357 196.406 326.802 202.225C336.247 208.044 341.476 209.225 341.476 209.225C341.476 209.225 332.958 211.164 324.778 210.996C316.598 210.827 310.441 206.189 308.333 198.767C306.14 191.262 310.779 186.202 310.779 186.202Z" fill="#FF8AC7"/>
<path d="M292.985 217.489C292.985 217.489 291.635 219.26 292.732 221.959C293.828 224.658 293.659 227.525 290.961 228.874C289.611 229.549 284.889 229.633 280.082 229.549C279.576 229.549 278.985 229.549 278.479 229.465C275.612 229.38 272.913 229.212 270.889 229.043C270.13 228.959 269.456 228.959 268.95 228.874C268.865 228.874 268.865 228.874 268.781 228.874C265.323 228.537 262.372 226.26 262.372 223.055C262.372 222.296 262.54 221.453 262.962 220.61C264.986 216.14 273.504 212.514 273.504 212.514C273.504 212.514 280.925 200.876 286.069 177.768C291.214 154.661 290.961 144.372 291.888 133.156C292.479 126.409 292.563 114.097 305.803 112.747C313.478 111.988 318.2 114.265 320.815 118.313C322.754 121.265 323.682 125.144 323.935 129.53C324.61 140.071 322.839 149.517 315.417 172.118C307.996 194.804 292.985 217.489 292.985 217.489Z" fill="#FF97C9"/>
<path d="M292.985 217.489C292.985 217.489 291.635 219.26 292.732 221.959C293.828 224.658 293.659 227.525 290.961 228.874C289.611 229.549 284.889 229.633 280.082 229.549C279.576 229.549 278.985 229.549 278.479 229.465C275.612 229.38 272.913 229.212 270.889 229.043C270.13 228.959 269.456 228.959 268.95 228.874C268.865 228.874 268.865 228.874 268.781 228.874C265.323 228.537 262.372 226.26 262.372 223.055C263.974 222.887 265.745 222.887 267.432 223.055C271.733 223.477 285.395 225.332 286.744 222.381C288.093 219.429 286.069 215.887 286.069 215.887C286.069 215.887 295.936 198.43 305.129 175.997C313.815 154.745 320.224 121.855 320.815 118.398C322.754 121.349 323.682 125.229 323.935 129.614C324.61 140.156 322.839 149.601 315.417 172.202C307.996 194.804 292.985 217.489 292.985 217.489Z" fill="#FF8AC7"/>
<path d="M288.515 230.73C284.298 230.73 269.034 230.308 266.504 229.802C264.817 229.465 263.299 228.284 262.287 226.682C261.191 224.995 260.938 222.971 261.444 220.947C262.456 217.068 270.805 212.851 272.491 212.008C273.166 211.67 273.925 211.923 274.262 212.598C274.6 213.273 274.347 214.032 273.672 214.369C269.961 216.14 264.564 219.598 264.058 221.537C263.721 222.802 263.974 224.067 264.648 225.164C265.239 226.176 266.166 226.85 267.094 227.103C269.54 227.609 287.84 228.115 289.358 227.947C290.201 227.862 291.804 227.188 292.057 224.995C292.31 223.055 291.045 220.104 290.539 219.176C290.286 218.754 290.37 218.164 290.623 217.742C290.623 217.658 294.249 212.767 299.984 203.237C306.056 193.201 313.562 173.805 319.549 152.468C325.621 131.132 320.393 119.916 320.308 119.831C319.971 119.157 320.224 118.398 320.899 118.06C321.573 117.723 322.332 117.976 322.67 118.651C322.923 119.157 328.404 130.795 322.079 153.227C316.007 174.732 308.417 194.466 302.177 204.671C297.538 212.261 294.334 216.983 293.153 218.67C293.743 220.019 294.924 222.887 294.587 225.332C294.165 228.79 291.635 230.477 289.442 230.645C289.358 230.73 289.021 230.73 288.515 230.73Z" fill="#F774B9"/>
<path d="M274.094 217.236C274.094 217.236 271.058 219.092 270.299 222.296C269.708 225.164 270.636 228.368 270.889 229.127C270.13 229.043 269.455 229.043 268.949 228.959C268.528 227.525 267.937 224.658 268.528 221.875C269.371 217.995 272.997 215.803 273.166 215.718C273.588 215.465 274.178 215.634 274.431 216.056C274.6 216.393 274.515 216.983 274.094 217.236Z" fill="#F774B9"/>
<path d="M282.78 217.658C282.696 217.742 280.419 219.345 279.913 223.055C279.407 226.935 280.166 228.706 280.166 228.706C280.25 228.959 280.25 229.296 280.082 229.549C279.576 229.549 278.985 229.549 278.479 229.465C278.395 229.212 277.467 227.188 278.058 222.802C278.648 218.164 281.6 216.224 281.684 216.14C282.106 215.887 282.612 215.971 282.949 216.393C283.286 216.815 283.118 217.405 282.78 217.658Z" fill="#F774B9"/>
<path d="M332.621 75.978C332.621 75.978 330.681 77.749 327.055 80.3633C323.428 82.9776 307.068 92.3386 285.394 93.0133C267.262 93.6036 240.95 93.435 232.517 75.1347C230.83 71.5083 229.903 67.123 229.818 61.9786C229.397 30.6066 267.009 18.6313 282.274 18.2097C298.634 17.788 315.754 19.6433 322.585 30.8597C325.958 36.4257 328.91 49.413 330.428 58.6053C331.946 67.9663 332.621 75.978 332.621 75.978Z" fill="#FF97C9"/>
<path d="M281.768 20.3182C279.575 22.8482 276.708 24.3661 273.841 25.2938C266.166 27.7395 257.902 25.9685 257.902 25.9685C257.902 25.9685 257.058 16.1858 257.143 10.9571C257.227 8.84881 257.396 7.33081 257.817 6.23448C258.492 4.54781 259.504 3.87314 261.106 3.70448C263.805 3.45148 281.768 20.3182 281.768 20.3182Z" fill="#FF97C9"/>
<path d="M272.069 23.4383C265.238 22.5106 260.263 24.1973 260.263 24.1973C260.263 24.1973 258.745 16.1856 258.829 12.0533C258.829 10.3666 259.082 9.18597 259.419 8.2583C260.6 9.18597 262.877 11.21 265.913 14.8363C268.865 18.547 270.973 21.7516 272.069 23.4383Z" fill="#FFBDE0"/>
<path d="M325.537 38.5341L316.513 34.9921L296.104 26.9804C296.104 26.9804 298.466 10.4511 302.261 5.05372C302.261 4.96939 302.345 4.96939 302.345 4.88506C306.225 -0.343607 309.851 0.0780619 311.453 2.60806C313.055 5.13806 319.633 19.8121 322.332 27.8237C325.115 36.0041 325.537 38.5341 325.537 38.5341Z" fill="#FF97C9"/>
<path d="M314.573 23.9445L299.815 23.0168C299.815 23.0168 301.502 11.8005 304.285 7.49947C305.381 7.24647 306.477 7.41513 307.489 8.42713C309.935 10.9571 313.308 19.3061 314.32 22.9325C314.405 23.1855 314.489 23.6071 314.573 23.9445Z" fill="#FFBDE0"/>
<path d="M302.851 57.0031C302.261 57.0031 301.671 56.5815 301.586 55.9911C301.418 55.2321 301.839 54.5575 302.598 54.3888L315.923 51.1841C316.682 51.0155 317.357 51.4371 317.525 52.1961C317.694 52.9551 317.272 53.6298 316.513 53.7985L303.189 57.0031C303.104 56.9188 302.936 57.0031 302.851 57.0031Z" fill="#F774B9"/>
<path d="M315.839 68.6411C315.754 68.6411 315.67 68.6411 315.586 68.6411L303.273 66.1954C302.514 66.0267 302.092 65.3521 302.177 64.5931C302.345 63.8341 303.02 63.4124 303.779 63.4967L316.092 65.9424C316.851 66.1111 317.272 66.7857 317.188 67.5447C317.019 68.2194 316.513 68.6411 315.839 68.6411Z" fill="#F774B9"/>
<path d="M233.192 65.0148C232.517 65.0148 231.927 64.5088 231.843 63.8341C231.758 63.0751 232.264 62.4005 233.023 62.3161L245.252 60.8825C246.011 60.7981 246.685 61.3041 246.77 62.0631C246.854 62.8221 246.348 63.4968 245.589 63.5811L233.361 65.0148C233.276 65.0148 233.276 65.0148 233.192 65.0148Z" fill="#F774B9"/>
<path d="M245.336 55.0633C245.167 55.0633 245.083 55.0633 244.914 54.979L232.855 50.8466C232.18 50.5936 231.758 49.8346 232.011 49.16C232.264 48.4853 233.023 48.0636 233.698 48.3166L245.758 52.449C246.432 52.702 246.854 53.461 246.601 54.1357C246.348 54.726 245.842 55.0633 245.336 55.0633Z" fill="#F774B9"/>
<path d="M304.791 24.5346H296.273C295.514 24.5346 294.924 23.9443 294.924 23.1853C294.924 22.4263 295.514 21.8359 296.273 21.8359H304.791C305.55 21.8359 306.14 22.4263 306.14 23.1853C306.14 23.9443 305.55 24.5346 304.791 24.5346Z" fill="#F774B9"/>
<path d="M274.768 24.5346H266.251C265.492 24.5346 264.901 23.9443 264.901 23.1853C264.901 22.4263 265.492 21.8359 266.251 21.8359H274.768C275.527 21.8359 276.118 22.4263 276.118 23.1853C276.033 23.9443 275.443 24.5346 274.768 24.5346Z" fill="#F774B9"/>
<path d="M332.621 75.9781C332.621 75.9781 330.681 77.7491 327.055 80.3635C323.428 82.9778 307.068 92.3388 285.394 93.0135C267.262 93.6038 240.95 93.4351 232.517 75.1348C234.878 77.2431 246.685 85.9295 280.756 84.4115C312.971 82.8935 326.717 64.7618 330.428 58.6055C331.946 67.9665 332.621 75.9781 332.621 75.9781Z" fill="#FF8AC7"/>
<path d="M268.106 70.9181C267.853 70.9181 267.6 70.8338 267.431 70.7494C266.757 70.3278 266.588 69.5687 267.01 68.8941L269.54 64.6774C270.299 63.4124 271.648 62.6534 273.082 62.5691C274.515 62.4848 275.949 63.1594 276.792 64.3401L279.997 68.7254C280.419 69.3158 280.334 70.1591 279.66 70.5808C279.069 71.0024 278.226 70.9181 277.804 70.2434L274.6 65.8581C274.262 65.3521 273.756 65.1834 273.166 65.1834C272.576 65.1834 272.07 65.5208 271.817 66.0268L269.287 70.2434C269.034 70.6651 268.612 70.9181 268.106 70.9181Z" fill="#1C3177"/>
<path d="M250.818 38.6182C250.818 42.5818 252.673 45.7865 254.866 45.7865C257.143 45.7865 258.914 42.5818 258.914 38.6182C258.914 37.1002 258.661 35.6665 258.155 34.4858L251.324 35.0762C250.987 36.0882 250.818 37.3532 250.818 38.6182Z" fill="#1C3177"/>
<path d="M260.263 36.5099H251.745C250.986 36.5099 250.396 35.9196 250.396 35.1606C250.396 34.4016 250.986 33.8113 251.745 33.8113H260.263C261.022 33.8113 261.612 34.4016 261.612 35.1606C261.612 35.9196 260.938 36.5099 260.263 36.5099Z" fill="#1C3177"/>
<path d="M296.695 40.5581C296.695 45.0278 294.755 48.6541 292.31 48.6541C289.864 48.6541 287.924 45.0278 287.924 40.5581C287.924 38.7871 288.262 37.1848 288.768 35.8354L296.189 36.5101C296.442 37.6908 296.695 39.1245 296.695 40.5581Z" fill="#1C3177"/>
<path d="M297.285 37.9438H288.768C288.009 37.9438 287.418 37.3535 287.418 36.5945C287.418 35.8355 288.009 35.2451 288.768 35.2451H297.285C298.044 35.2451 298.635 35.8355 298.635 36.5945C298.635 37.3535 297.96 37.9438 297.285 37.9438Z" fill="#1C3177"/>
</svg>
